<svg xmlns="http://www.w3.org/2000/svg" viewBox="0 0 128 128">
  <defs>
    <linearGradient id="a" x1="16" y1="16" x2="112" y2="112" gradientUnits="userSpaceOnUse">
      <stop offset="0" stop-color="#534BB1"/>
      <stop offset="1" stop-color="#551BF9"/>
    </linearGradient>
  </defs>
  <rect width="128" height="128" rx="26" fill="url(#a)"/>
  <path d="M108.1 64.8c0 .7-.1 1.4-.2 2.1C105.3 88.3 88.1 104 68 104H38.7c-2.5 0-4.5-2-4.5-4.5v-.3c.3-3 2.9-5.2 5.9-5.2h24.6c15.3 0 28.3-10.2 32.4-24.2.5-1.7.8-3.5 1-5.3.2-2.3-1.6-4.3-3.9-4.3H43.6c-3 0-5.5 2.5-5.5 5.5v37c0 .1 0 .2-.1.3-1 2.3-3.3 3.9-5.9 3.9-3.6 0-6.5-2.9-6.5-6.5V60.8c0-15.8 12.8-28.6 28.6-28.6H92c9.8 0 16.6 9.7 16.1 19.4v.2c0 4.6 0 9-.1 13h.1z" fill="#FFF"/>
  <circle cx="51" cy="59" r="5.5" fill="#534BB1"/>
  <circle cx="72" cy="59" r="5.5" fill="#534BB1"/>
</svg>
