<svg xmlns="http://www.w3.org/2000/svg" viewBox="0 0 128 128">
  <defs>
    <linearGradient id="a" x1="20" y1="20" x2="108" y2="108" gradientUnits="userSpaceOnUse">
      <stop offset="0" stop-color="#FCC00A"/>
      <stop offset="1" stop-color="#FC7B14"/>
    </linearGradient>
  </defs>
  <rect width="128" height="128" rx="26" fill="#1A1A2E"/>
  <circle cx="64" cy="64" r="38" fill="url(#a)"/>
  <path d="M64 30l6 14h-12zm0 68l-6-14h12zM30 64l14-6v12zm68 0l-14 6V58z" fill="#FFF" opacity=".9"/>
  <path d="M40 40l11 8-3 3zm48 0l-8 11-3-3zM40 88l8-11 3 3zm48 0l-11-8 3-3z" fill="#FFF" opacity=".6"/>
  <circle cx="64" cy="64" r="12" fill="#1A1A2E"/>
  <circle cx="64" cy="64" r="6" fill="url(#a)"/>
</svg>
